<mxfile host="app.diagrams.net" modified="2020-08-19T13:55:22.992Z" agent="5.0 (Windows NT 10.0; Win64; x64) AppleWebKit/537.36 (KHTML, like Gecko) Chrome/84.0.4147.125 Safari/537.36" etag="_olSPdSqlkSDpD0K2L8Y" version="13.6.0" type="github" pages="3">
  <diagram id="prtHgNgQTEPvFCAcTncT" name="Page-1">
    <mxGraphModel dx="2418" dy="1146" grid="1" gridSize="10" guides="1" tooltips="1" connect="1" arrows="1" fold="1" page="1" pageScale="1" pageWidth="827" pageHeight="1169" background="#F1FAEE" math="0" shadow="0">
      <root>
        <mxCell id="0" />
        <mxCell id="1" parent="0" />
        <mxCell id="dNxyNK7c78bLwvsdeMH5-19" value="Предзаказ&lt;br&gt;" style="swimlane;html=1;childLayout=stackLayout;resizeParent=1;resizeParentMax=0;horizontal=0;startSize=20;horizontalStack=0;fillColor=#A8DADC;strokeColor=#457B9D;fontColor=#1D3557;" parent="1" vertex="1">
          <mxGeometry x="110" y="200" width="1390" height="790" as="geometry">
            <mxRectangle x="80" y="120" width="30" height="80" as="alternateBounds" />
          </mxGeometry>
        </mxCell>
        <mxCell id="dNxyNK7c78bLwvsdeMH5-20" value="АРМ ИМ" style="swimlane;html=1;startSize=20;horizontal=0;fillColor=#A8DADC;strokeColor=#457B9D;fontColor=#1D3557;" parent="dNxyNK7c78bLwvsdeMH5-19" vertex="1">
          <mxGeometry x="20" width="1370" height="250" as="geometry" />
        </mxCell>
        <mxCell id="dNxyNK7c78bLwvsdeMH5-25" value="" style="edgeStyle=orthogonalEdgeStyle;rounded=0;orthogonalLoop=1;jettySize=auto;html=1;strokeColor=#457B9D;fontColor=#1D3557;labelBackgroundColor=#F1FAEE;" parent="dNxyNK7c78bLwvsdeMH5-20" source="l-QhswC7FGs499EKS-Dz-24" target="dNxyNK7c78bLwvsdeMH5-24" edge="1">
          <mxGeometry relative="1" as="geometry" />
        </mxCell>
        <mxCell id="l-QhswC7FGs499EKS-Dz-10" value="да" style="edgeStyle=orthogonalEdgeStyle;rounded=0;orthogonalLoop=1;jettySize=auto;html=1;entryX=0.5;entryY=0;entryDx=0;entryDy=0;strokeColor=#457B9D;fontColor=#1D3557;labelBackgroundColor=#F1FAEE;" parent="dNxyNK7c78bLwvsdeMH5-20" source="l-QhswC7FGs499EKS-Dz-3" target="l-QhswC7FGs499EKS-Dz-9" edge="1">
          <mxGeometry x="0.6364" y="-15" relative="1" as="geometry">
            <mxPoint as="offset" />
          </mxGeometry>
        </mxCell>
        <mxCell id="I-JFqp-M4kws3PON3gmr-5" style="edgeStyle=orthogonalEdgeStyle;curved=0;rounded=1;sketch=0;orthogonalLoop=1;jettySize=auto;html=1;entryX=0.5;entryY=0;entryDx=0;entryDy=0;strokeColor=#457B9D;fillColor=#A8DADC;fontColor=#1D3557;" edge="1" parent="dNxyNK7c78bLwvsdeMH5-20" source="dNxyNK7c78bLwvsdeMH5-24" target="t7CH6fMRdoAm_vhYNOzl-13">
          <mxGeometry relative="1" as="geometry" />
        </mxCell>
        <mxCell id="dNxyNK7c78bLwvsdeMH5-24" value="Заказ ИМ" style="rounded=1;whiteSpace=wrap;html=1;fontFamily=Helvetica;fontSize=12;align=center;fillColor=#A8DADC;strokeColor=#457B9D;fontColor=#1D3557;" parent="dNxyNK7c78bLwvsdeMH5-20" vertex="1">
          <mxGeometry x="360" y="55" width="80" height="60" as="geometry" />
        </mxCell>
        <mxCell id="l-QhswC7FGs499EKS-Dz-3" value="Заказ подтвержден ?" style="shape=hexagon;html=1;whiteSpace=wrap;perimeter=hexagonPerimeter;strokeWidth=4;rounded=1;fillColor=#A8DADC;strokeColor=#457B9D;fontColor=#1D3557;" parent="dNxyNK7c78bLwvsdeMH5-20" vertex="1">
          <mxGeometry x="960" y="50" width="110" height="60" as="geometry" />
        </mxCell>
        <mxCell id="zD6_iEBNzpCxgIYbJEHy-22" value="информация на сайт&amp;nbsp;" style="strokeWidth=2;html=1;shape=mxgraph.flowchart.document2;whiteSpace=wrap;size=0.25;fillColor=#A8DADC;strokeColor=#457B9D;fontColor=#1D3557;" parent="dNxyNK7c78bLwvsdeMH5-20" vertex="1">
          <mxGeometry x="1120" y="35" width="100" height="90" as="geometry" />
        </mxCell>
        <mxCell id="l-QhswC7FGs499EKS-Dz-22" value="" style="endArrow=classic;html=1;entryX=0;entryY=0.5;entryDx=0;entryDy=0;strokeColor=#457B9D;fontColor=#1D3557;labelBackgroundColor=#F1FAEE;" parent="dNxyNK7c78bLwvsdeMH5-20" source="l-QhswC7FGs499EKS-Dz-81" target="l-QhswC7FGs499EKS-Dz-3" edge="1">
          <mxGeometry width="50" height="50" relative="1" as="geometry">
            <mxPoint x="120" y="-5" as="sourcePoint" />
            <mxPoint x="470.71067811865476" y="185" as="targetPoint" />
          </mxGeometry>
        </mxCell>
        <mxCell id="l-QhswC7FGs499EKS-Dz-7" style="edgeStyle=orthogonalEdgeStyle;rounded=0;orthogonalLoop=1;jettySize=auto;html=1;exitX=1;exitY=0.5;exitDx=0;exitDy=0;entryX=0;entryY=0.5;entryDx=0;entryDy=0;strokeColor=#457B9D;fontColor=#1D3557;labelBackgroundColor=#F1FAEE;" parent="dNxyNK7c78bLwvsdeMH5-20" edge="1">
          <mxGeometry relative="1" as="geometry">
            <mxPoint x="590" y="64.81132075471697" as="sourcePoint" />
            <mxPoint x="590" y="65" as="targetPoint" />
          </mxGeometry>
        </mxCell>
        <mxCell id="l-QhswC7FGs499EKS-Dz-8" value="Нет" style="edgeLabel;html=1;align=center;verticalAlign=middle;resizable=0;points=[];fontColor=#1D3557;labelBackgroundColor=#F1FAEE;" parent="l-QhswC7FGs499EKS-Dz-7" vertex="1" connectable="0">
          <mxGeometry x="-0.2048" y="1" relative="1" as="geometry">
            <mxPoint x="499" y="5.190000000000001" as="offset" />
          </mxGeometry>
        </mxCell>
        <mxCell id="t7CH6fMRdoAm_vhYNOzl-9" value="&lt;font color=&quot;#000000&quot;&gt;&lt;br&gt;&lt;/font&gt;" style="shape=mxgraph.bpmn.shape;html=1;verticalLabelPosition=bottom;verticalAlign=top;align=center;perimeter=ellipsePerimeter;outlineConnect=0;outline=end;symbol=terminate;rounded=0;sketch=0;fillColor=#A8DADC;strokeColor=#457B9D;fontColor=#1D3557;" vertex="1" parent="dNxyNK7c78bLwvsdeMH5-20">
          <mxGeometry x="1290" y="55" width="50" height="50" as="geometry" />
        </mxCell>
        <mxCell id="t7CH6fMRdoAm_vhYNOzl-7" value="" style="endArrow=classic;html=1;strokeColor=#457B9D;fontColor=#1D3557;labelBackgroundColor=#F1FAEE;" edge="1" parent="dNxyNK7c78bLwvsdeMH5-20" source="l-QhswC7FGs499EKS-Dz-3" target="zD6_iEBNzpCxgIYbJEHy-22">
          <mxGeometry width="50" height="50" relative="1" as="geometry">
            <mxPoint x="780" y="265" as="sourcePoint" />
            <mxPoint x="1020" y="265" as="targetPoint" />
          </mxGeometry>
        </mxCell>
        <mxCell id="l-QhswC7FGs499EKS-Dz-81" value="Форма работы с покупателем&amp;nbsp;" style="rounded=1;whiteSpace=wrap;html=1;sketch=0;fillColor=#A8DADC;strokeColor=#457B9D;fontColor=#1D3557;" parent="dNxyNK7c78bLwvsdeMH5-20" vertex="1">
          <mxGeometry x="800" y="50" width="120" height="60" as="geometry" />
        </mxCell>
        <mxCell id="dNxyNK7c78bLwvsdeMH5-23" value="Заказ на сайте" style="ellipse;whiteSpace=wrap;html=1;fillColor=#A8DADC;strokeColor=#457B9D;fontColor=#1D3557;" parent="dNxyNK7c78bLwvsdeMH5-20" vertex="1">
          <mxGeometry x="60" y="60" width="50" height="50" as="geometry" />
        </mxCell>
        <mxCell id="l-QhswC7FGs499EKS-Dz-24" value="данные" style="shape=document;whiteSpace=wrap;html=1;boundedLbl=1;rounded=0;sketch=0;fillColor=#A8DADC;strokeColor=#457B9D;fontColor=#1D3557;" parent="dNxyNK7c78bLwvsdeMH5-20" vertex="1">
          <mxGeometry x="259" y="65" width="50" height="40" as="geometry" />
        </mxCell>
        <mxCell id="t7CH6fMRdoAm_vhYNOzl-27" style="edgeStyle=orthogonalEdgeStyle;curved=0;rounded=1;sketch=0;orthogonalLoop=1;jettySize=auto;html=1;entryX=0;entryY=0.5;entryDx=0;entryDy=0;strokeColor=#457B9D;fillColor=#A8DADC;fontColor=#1D3557;" edge="1" parent="dNxyNK7c78bLwvsdeMH5-20" source="t7CH6fMRdoAm_vhYNOzl-23" target="t7CH6fMRdoAm_vhYNOzl-25">
          <mxGeometry relative="1" as="geometry" />
        </mxCell>
        <mxCell id="t7CH6fMRdoAm_vhYNOzl-23" value="Есть цена ?&amp;nbsp;" style="html=1;whiteSpace=wrap;rounded=1;dropTarget=0;sketch=0;strokeColor=#457B9D;fillColor=#A8DADC;fontColor=#1D3557;" vertex="1" parent="dNxyNK7c78bLwvsdeMH5-20">
          <mxGeometry x="480" y="45" width="120" height="80" as="geometry" />
        </mxCell>
        <mxCell id="t7CH6fMRdoAm_vhYNOzl-24" value="" style="html=1;shape=plus;outlineConnect=0;" vertex="1" parent="t7CH6fMRdoAm_vhYNOzl-23">
          <mxGeometry x="0.5" y="1" width="14" height="14" relative="1" as="geometry">
            <mxPoint x="-7" y="-14" as="offset" />
          </mxGeometry>
        </mxCell>
        <mxCell id="t7CH6fMRdoAm_vhYNOzl-28" style="edgeStyle=orthogonalEdgeStyle;curved=0;rounded=1;sketch=0;orthogonalLoop=1;jettySize=auto;html=1;entryX=0;entryY=0.583;entryDx=0;entryDy=0;entryPerimeter=0;strokeColor=#457B9D;fillColor=#A8DADC;fontColor=#1D3557;" edge="1" parent="dNxyNK7c78bLwvsdeMH5-20" source="t7CH6fMRdoAm_vhYNOzl-25" target="l-QhswC7FGs499EKS-Dz-81">
          <mxGeometry relative="1" as="geometry" />
        </mxCell>
        <mxCell id="t7CH6fMRdoAm_vhYNOzl-25" value="Есть в наличии?&amp;nbsp;" style="html=1;whiteSpace=wrap;rounded=1;dropTarget=0;sketch=0;strokeColor=#457B9D;fillColor=#A8DADC;fontColor=#1D3557;" vertex="1" parent="dNxyNK7c78bLwvsdeMH5-20">
          <mxGeometry x="635" y="45" width="120" height="80" as="geometry" />
        </mxCell>
        <mxCell id="t7CH6fMRdoAm_vhYNOzl-26" value="" style="html=1;shape=plus;outlineConnect=0;" vertex="1" parent="t7CH6fMRdoAm_vhYNOzl-25">
          <mxGeometry x="0.5" y="1" width="14" height="14" relative="1" as="geometry">
            <mxPoint x="-7" y="-14" as="offset" />
          </mxGeometry>
        </mxCell>
        <mxCell id="l-QhswC7FGs499EKS-Dz-82" value="" style="endArrow=classic;html=1;strokeColor=#457B9D;fontColor=#1D3557;labelBackgroundColor=#F1FAEE;" parent="dNxyNK7c78bLwvsdeMH5-20" source="zD6_iEBNzpCxgIYbJEHy-22" edge="1" target="t7CH6fMRdoAm_vhYNOzl-9">
          <mxGeometry width="50" height="50" relative="1" as="geometry">
            <mxPoint x="420" y="130" as="sourcePoint" />
            <mxPoint x="1280" y="85" as="targetPoint" />
          </mxGeometry>
        </mxCell>
        <mxCell id="zD6_iEBNzpCxgIYbJEHy-26" value="SMS" style="shape=document;whiteSpace=wrap;html=1;boundedLbl=1;rounded=0;sketch=0;fillColor=#A8DADC;strokeColor=#457B9D;fontColor=#1D3557;size=0;" parent="dNxyNK7c78bLwvsdeMH5-20" vertex="1">
          <mxGeometry x="150" y="68" width="60" height="35" as="geometry" />
        </mxCell>
        <mxCell id="I-JFqp-M4kws3PON3gmr-8" value="РТУ не проведен" style="rounded=1;whiteSpace=wrap;html=1;sketch=0;strokeColor=#457B9D;fillColor=#A8DADC;fontColor=#1D3557;" vertex="1" parent="dNxyNK7c78bLwvsdeMH5-20">
          <mxGeometry x="340" y="140" width="120" height="40" as="geometry" />
        </mxCell>
        <mxCell id="l-QhswC7FGs499EKS-Dz-9" value="Список заказов покупателей&amp;nbsp;" style="rounded=1;whiteSpace=wrap;html=1;fillColor=#A8DADC;strokeColor=#457B9D;fontColor=#1D3557;" parent="dNxyNK7c78bLwvsdeMH5-20" vertex="1">
          <mxGeometry x="955" y="180" width="120" height="60" as="geometry" />
        </mxCell>
        <mxCell id="t7CH6fMRdoAm_vhYNOzl-16" value="" style="endArrow=classic;html=1;entryX=0;entryY=0.5;entryDx=0;entryDy=0;strokeColor=#457B9D;fontColor=#1D3557;labelBackgroundColor=#F1FAEE;" edge="1" parent="dNxyNK7c78bLwvsdeMH5-20" source="dNxyNK7c78bLwvsdeMH5-24">
          <mxGeometry width="50" height="50" relative="1" as="geometry">
            <mxPoint x="490" y="266.25" as="sourcePoint" />
            <mxPoint x="479.9999999999998" y="85" as="targetPoint" />
          </mxGeometry>
        </mxCell>
        <mxCell id="t7CH6fMRdoAm_vhYNOzl-18" style="edgeStyle=orthogonalEdgeStyle;curved=0;rounded=1;sketch=0;orthogonalLoop=1;jettySize=auto;html=1;strokeColor=#457B9D;fillColor=#A8DADC;fontColor=#1D3557;entryX=0;entryY=0.5;entryDx=0;entryDy=0;exitX=1;exitY=0.5;exitDx=0;exitDy=0;" edge="1" parent="dNxyNK7c78bLwvsdeMH5-20" source="zD6_iEBNzpCxgIYbJEHy-26" target="l-QhswC7FGs499EKS-Dz-24">
          <mxGeometry relative="1" as="geometry">
            <mxPoint x="430" y="89" as="targetPoint" />
            <mxPoint x="260" y="81.5" as="sourcePoint" />
          </mxGeometry>
        </mxCell>
        <mxCell id="t7CH6fMRdoAm_vhYNOzl-13" value="Перемещение товаров и услуг" style="rounded=1;whiteSpace=wrap;html=1;sketch=0;strokeColor=#457B9D;fillColor=#A8DADC;fontColor=#1D3557;" vertex="1" parent="dNxyNK7c78bLwvsdeMH5-20">
          <mxGeometry x="340" y="200" width="120" height="40" as="geometry" />
        </mxCell>
        <mxCell id="dNxyNK7c78bLwvsdeMH5-21" value="Отчет своз на ЦС" style="swimlane;html=1;startSize=20;horizontal=0;fillColor=#A8DADC;strokeColor=#457B9D;fontColor=#1D3557;" parent="dNxyNK7c78bLwvsdeMH5-19" vertex="1">
          <mxGeometry x="20" y="250" width="1370" height="170" as="geometry" />
        </mxCell>
        <mxCell id="I-JFqp-M4kws3PON3gmr-10" style="edgeStyle=orthogonalEdgeStyle;curved=0;rounded=1;sketch=0;orthogonalLoop=1;jettySize=auto;html=1;strokeColor=#457B9D;fillColor=#A8DADC;fontColor=#1D3557;" edge="1" parent="dNxyNK7c78bLwvsdeMH5-21" source="l-QhswC7FGs499EKS-Dz-12" target="t7CH6fMRdoAm_vhYNOzl-12">
          <mxGeometry relative="1" as="geometry" />
        </mxCell>
        <mxCell id="l-QhswC7FGs499EKS-Dz-12" value="Своз на ЦС" style="whiteSpace=wrap;html=1;rounded=1;fillColor=#A8DADC;strokeColor=#457B9D;fontColor=#1D3557;" parent="dNxyNK7c78bLwvsdeMH5-21" vertex="1">
          <mxGeometry x="955" y="20" width="120" height="60" as="geometry" />
        </mxCell>
        <mxCell id="I-JFqp-M4kws3PON3gmr-3" value="доствка&amp;nbsp;" style="rounded=1;whiteSpace=wrap;html=1;sketch=0;strokeColor=#457B9D;fillColor=#A8DADC;fontColor=#1D3557;" vertex="1" parent="dNxyNK7c78bLwvsdeMH5-21">
          <mxGeometry x="380" y="40" width="120" height="40" as="geometry" />
        </mxCell>
        <mxCell id="I-JFqp-M4kws3PON3gmr-6" value="" style="endArrow=classic;startArrow=classic;html=1;strokeColor=#457B9D;fillColor=#A8DADC;fontColor=#1D3557;entryX=0;entryY=0.5;entryDx=0;entryDy=0;" edge="1" parent="dNxyNK7c78bLwvsdeMH5-21" target="t7CH6fMRdoAm_vhYNOzl-12">
          <mxGeometry width="50" height="50" relative="1" as="geometry">
            <mxPoint x="500" y="65" as="sourcePoint" />
            <mxPoint x="990" y="165" as="targetPoint" />
          </mxGeometry>
        </mxCell>
        <mxCell id="t7CH6fMRdoAm_vhYNOzl-12" value="Заказ поставщику" style="rounded=1;whiteSpace=wrap;html=1;sketch=0;strokeColor=#457B9D;fillColor=#A8DADC;fontColor=#1D3557;" vertex="1" parent="dNxyNK7c78bLwvsdeMH5-21">
          <mxGeometry x="955" y="105" width="120" height="60" as="geometry" />
        </mxCell>
        <mxCell id="l-QhswC7FGs499EKS-Dz-88" value="Дата старта продаж" style="shape=note;whiteSpace=wrap;size=16;html=1;dropTarget=0;rounded=0;sketch=0;fillColor=#A8DADC;strokeColor=#457B9D;fontColor=#1D3557;" parent="dNxyNK7c78bLwvsdeMH5-21" vertex="1">
          <mxGeometry x="600" y="105" width="40" height="60" as="geometry" />
        </mxCell>
        <mxCell id="l-QhswC7FGs499EKS-Dz-89" value="" style="html=1;shape=singleArrow;arrowWidth=0.4;arrowSize=0.4;outlineConnect=0;fillColor=#A8DADC;strokeColor=#457B9D;fontColor=#1D3557;" parent="l-QhswC7FGs499EKS-Dz-88" vertex="1">
          <mxGeometry width="14" height="14" relative="1" as="geometry">
            <mxPoint x="2" y="2" as="offset" />
          </mxGeometry>
        </mxCell>
        <mxCell id="l-QhswC7FGs499EKS-Dz-90" value="" style="html=1;whiteSpace=wrap;shape=parallelMarker;outlineConnect=0;fillColor=#A8DADC;strokeColor=#457B9D;fontColor=#1D3557;" parent="l-QhswC7FGs499EKS-Dz-88" vertex="1">
          <mxGeometry x="0.5" y="1" width="14" height="14" relative="1" as="geometry">
            <mxPoint x="-7" y="-14" as="offset" />
          </mxGeometry>
        </mxCell>
        <mxCell id="l-QhswC7FGs499EKS-Dz-13" value="" style="edgeStyle=orthogonalEdgeStyle;rounded=0;orthogonalLoop=1;jettySize=auto;html=1;strokeColor=#457B9D;fontColor=#1D3557;labelBackgroundColor=#F1FAEE;" parent="dNxyNK7c78bLwvsdeMH5-19" source="l-QhswC7FGs499EKS-Dz-9" target="l-QhswC7FGs499EKS-Dz-12" edge="1">
          <mxGeometry relative="1" as="geometry" />
        </mxCell>
        <mxCell id="dNxyNK7c78bLwvsdeMH5-22" value="АРМ ТСД" style="swimlane;html=1;startSize=20;horizontal=0;fillColor=#A8DADC;strokeColor=#457B9D;fontColor=#1D3557;" parent="dNxyNK7c78bLwvsdeMH5-19" vertex="1">
          <mxGeometry x="20" y="420" width="1370" height="370" as="geometry">
            <mxRectangle x="20" y="310" width="720" height="20" as="alternateBounds" />
          </mxGeometry>
        </mxCell>
        <mxCell id="l-QhswC7FGs499EKS-Dz-14" value="Приходный ордер" style="whiteSpace=wrap;html=1;rounded=1;fillColor=#A8DADC;strokeColor=#457B9D;fontColor=#1D3557;" parent="dNxyNK7c78bLwvsdeMH5-22" vertex="1">
          <mxGeometry x="956" y="20" width="120" height="60" as="geometry" />
        </mxCell>
        <mxCell id="t7CH6fMRdoAm_vhYNOzl-11" value="" style="endArrow=classic;html=1;strokeColor=#457B9D;fillColor=#A8DADC;fontColor=#1D3557;exitX=0.5;exitY=1;exitDx=0;exitDy=0;entryX=0.5;entryY=0;entryDx=0;entryDy=0;" edge="1" parent="dNxyNK7c78bLwvsdeMH5-22" source="l-QhswC7FGs499EKS-Dz-14" target="t7CH6fMRdoAm_vhYNOzl-14">
          <mxGeometry width="50" height="50" relative="1" as="geometry">
            <mxPoint x="430" y="100" as="sourcePoint" />
            <mxPoint x="480" y="50" as="targetPoint" />
          </mxGeometry>
        </mxCell>
        <mxCell id="I9Ccvf2xj7DvVXmtlcZt-3" style="edgeStyle=orthogonalEdgeStyle;curved=0;rounded=1;sketch=0;orthogonalLoop=1;jettySize=auto;html=1;entryX=0.5;entryY=0;entryDx=0;entryDy=0;strokeColor=#457B9D;fillColor=#A8DADC;fontColor=#1D3557;" edge="1" parent="dNxyNK7c78bLwvsdeMH5-22" source="t7CH6fMRdoAm_vhYNOzl-14" target="l-QhswC7FGs499EKS-Dz-93">
          <mxGeometry relative="1" as="geometry" />
        </mxCell>
        <mxCell id="t7CH6fMRdoAm_vhYNOzl-14" value="Поступление товаров и услуг" style="rounded=1;whiteSpace=wrap;html=1;sketch=0;strokeColor=#457B9D;fillColor=#A8DADC;fontColor=#1D3557;" vertex="1" parent="dNxyNK7c78bLwvsdeMH5-22">
          <mxGeometry x="956" y="100" width="120" height="60" as="geometry" />
        </mxCell>
        <mxCell id="l-QhswC7FGs499EKS-Dz-93" value="Доставка ИМ" style="rounded=1;whiteSpace=wrap;html=1;sketch=0;fillColor=#A8DADC;strokeColor=#457B9D;fontColor=#1D3557;" parent="dNxyNK7c78bLwvsdeMH5-22" vertex="1">
          <mxGeometry x="960" y="180" width="120" height="60" as="geometry" />
        </mxCell>
        <mxCell id="I-JFqp-M4kws3PON3gmr-4" style="edgeStyle=orthogonalEdgeStyle;curved=0;rounded=1;sketch=0;orthogonalLoop=1;jettySize=auto;html=1;entryX=0.5;entryY=0;entryDx=0;entryDy=0;strokeColor=#457B9D;fillColor=#A8DADC;fontColor=#1D3557;" edge="1" parent="dNxyNK7c78bLwvsdeMH5-19" source="t7CH6fMRdoAm_vhYNOzl-13" target="I-JFqp-M4kws3PON3gmr-3">
          <mxGeometry relative="1" as="geometry" />
        </mxCell>
        <mxCell id="I9Ccvf2xj7DvVXmtlcZt-2" style="edgeStyle=orthogonalEdgeStyle;curved=0;rounded=1;sketch=0;orthogonalLoop=1;jettySize=auto;html=1;entryX=0.5;entryY=0;entryDx=0;entryDy=0;strokeColor=#457B9D;fillColor=#A8DADC;fontColor=#1D3557;" edge="1" parent="dNxyNK7c78bLwvsdeMH5-19" source="t7CH6fMRdoAm_vhYNOzl-12" target="l-QhswC7FGs499EKS-Dz-14">
          <mxGeometry relative="1" as="geometry" />
        </mxCell>
        <mxCell id="l-QhswC7FGs499EKS-Dz-31" value="АРМ Кассира" style="swimlane;html=1;startSize=20;horizontal=0;fillColor=#A8DADC;strokeColor=#457B9D;fontColor=#1D3557;" parent="1" vertex="1">
          <mxGeometry x="140" y="1310" width="1360" height="420" as="geometry">
            <mxRectangle y="310" width="30" height="170" as="alternateBounds" />
          </mxGeometry>
        </mxCell>
        <mxCell id="l-QhswC7FGs499EKS-Dz-43" value="Нет" style="edgeLabel;html=1;align=center;verticalAlign=middle;resizable=0;points=[];fontColor=#1D3557;labelBackgroundColor=#F1FAEE;" parent="l-QhswC7FGs499EKS-Dz-31" vertex="1" connectable="0">
          <mxGeometry x="900.001365775286" y="-9.996826143482906" as="geometry">
            <mxPoint x="21" y="194" as="offset" />
          </mxGeometry>
        </mxCell>
        <mxCell id="l-QhswC7FGs499EKS-Dz-35" value="Товар продан" style="rhombus;whiteSpace=wrap;html=1;rounded=1;fillColor=#A8DADC;strokeColor=#457B9D;fontColor=#1D3557;" parent="l-QhswC7FGs499EKS-Dz-31" vertex="1">
          <mxGeometry x="750" y="120" width="80" height="80" as="geometry" />
        </mxCell>
        <mxCell id="T91x82GOMBjYjX_6Ynkf-2" style="edgeStyle=orthogonalEdgeStyle;curved=0;rounded=1;sketch=0;orthogonalLoop=1;jettySize=auto;html=1;entryX=0.5;entryY=1;entryDx=0;entryDy=0;strokeColor=#457B9D;fillColor=#A8DADC;fontColor=#1D3557;" edge="1" parent="l-QhswC7FGs499EKS-Dz-31" source="t7CH6fMRdoAm_vhYNOzl-3" target="t7CH6fMRdoAm_vhYNOzl-8">
          <mxGeometry relative="1" as="geometry" />
        </mxCell>
        <mxCell id="t7CH6fMRdoAm_vhYNOzl-3" value="Закрытие заказа" style="rounded=1;whiteSpace=wrap;html=1;fillColor=#A8DADC;strokeColor=#457B9D;fontColor=#1D3557;" vertex="1" parent="l-QhswC7FGs499EKS-Dz-31">
          <mxGeometry x="1041" y="130" width="120" height="60" as="geometry" />
        </mxCell>
        <mxCell id="t7CH6fMRdoAm_vhYNOzl-8" value="&lt;font color=&quot;#000000&quot;&gt;&lt;br&gt;&lt;/font&gt;" style="shape=mxgraph.bpmn.shape;html=1;verticalLabelPosition=bottom;verticalAlign=top;align=center;perimeter=ellipsePerimeter;outlineConnect=0;outline=end;symbol=terminate;rounded=0;sketch=0;fillColor=#A8DADC;strokeColor=#457B9D;fontColor=#1D3557;direction=south;" vertex="1" parent="l-QhswC7FGs499EKS-Dz-31">
          <mxGeometry x="1240" y="135" width="50" height="50" as="geometry" />
        </mxCell>
        <mxCell id="t7CH6fMRdoAm_vhYNOzl-10" style="edgeStyle=orthogonalEdgeStyle;curved=0;rounded=1;sketch=0;orthogonalLoop=1;jettySize=auto;html=1;strokeColor=#457B9D;fontColor=#1D3557;labelBackgroundColor=#F1FAEE;entryX=0;entryY=0.5;entryDx=0;entryDy=0;" edge="1" parent="l-QhswC7FGs499EKS-Dz-31" source="l-QhswC7FGs499EKS-Dz-35" target="t7CH6fMRdoAm_vhYNOzl-3">
          <mxGeometry relative="1" as="geometry">
            <mxPoint x="1030" y="220" as="targetPoint" />
            <mxPoint x="765" y="990" as="sourcePoint" />
          </mxGeometry>
        </mxCell>
        <mxCell id="l-QhswC7FGs499EKS-Dz-49" value="&lt;font color=&quot;#000000&quot;&gt;&lt;br&gt;&lt;/font&gt;" style="shape=mxgraph.bpmn.shape;html=1;verticalLabelPosition=bottom;verticalAlign=top;align=center;perimeter=ellipsePerimeter;outlineConnect=0;outline=end;symbol=terminate;rounded=0;sketch=0;fillColor=#A8DADC;strokeColor=#457B9D;fontColor=#1D3557;" parent="l-QhswC7FGs499EKS-Dz-31" vertex="1">
          <mxGeometry x="765" y="320" width="50" height="50" as="geometry" />
        </mxCell>
        <mxCell id="l-QhswC7FGs499EKS-Dz-50" value="Да" style="edgeStyle=orthogonalEdgeStyle;curved=0;rounded=1;sketch=0;orthogonalLoop=1;jettySize=auto;html=1;strokeColor=#457B9D;fontColor=#1D3557;labelBackgroundColor=#F1FAEE;" parent="l-QhswC7FGs499EKS-Dz-31" source="l-QhswC7FGs499EKS-Dz-35" target="l-QhswC7FGs499EKS-Dz-49" edge="1">
          <mxGeometry relative="1" as="geometry" />
        </mxCell>
        <mxCell id="l-QhswC7FGs499EKS-Dz-34" value="" style="edgeStyle=orthogonalEdgeStyle;curved=0;rounded=1;sketch=0;orthogonalLoop=1;jettySize=auto;html=1;strokeColor=#457B9D;fontColor=#1D3557;labelBackgroundColor=#F1FAEE;exitX=0.5;exitY=1;exitDx=0;exitDy=0;" parent="1" source="l-QhswC7FGs499EKS-Dz-93" target="l-QhswC7FGs499EKS-Dz-33" edge="1">
          <mxGeometry relative="1" as="geometry" />
        </mxCell>
        <mxCell id="t7CH6fMRdoAm_vhYNOzl-19" style="edgeStyle=orthogonalEdgeStyle;curved=0;rounded=1;sketch=0;orthogonalLoop=1;jettySize=auto;html=1;strokeColor=#457B9D;fillColor=#A8DADC;fontColor=#1D3557;" edge="1" parent="1" source="dNxyNK7c78bLwvsdeMH5-23">
          <mxGeometry relative="1" as="geometry">
            <mxPoint x="280" y="285" as="targetPoint" />
          </mxGeometry>
        </mxCell>
        <mxCell id="l-QhswC7FGs499EKS-Dz-33" value="Поступление товара&amp;nbsp;" style="whiteSpace=wrap;html=1;rounded=1;fillColor=#A8DADC;strokeColor=#457B9D;fontColor=#1D3557;" parent="1" vertex="1">
          <mxGeometry x="1090" y="900" width="120" height="60" as="geometry" />
        </mxCell>
        <mxCell id="l-QhswC7FGs499EKS-Dz-80" value="" style="edgeStyle=orthogonalEdgeStyle;curved=0;rounded=1;sketch=0;orthogonalLoop=1;jettySize=auto;html=1;entryX=0.5;entryY=0;entryDx=0;entryDy=0;strokeColor=#457B9D;fontColor=#1D3557;labelBackgroundColor=#F1FAEE;" parent="1" source="5yb5sMTRyTCn8XweGh5G-6" target="l-QhswC7FGs499EKS-Dz-35" edge="1">
          <mxGeometry relative="1" as="geometry">
            <mxPoint x="600" y="1749.9999999999998" as="sourcePoint" />
            <mxPoint x="705" y="1030" as="targetPoint" />
          </mxGeometry>
        </mxCell>
        <mxCell id="l-QhswC7FGs499EKS-Dz-86" style="edgeStyle=orthogonalEdgeStyle;curved=0;rounded=1;sketch=0;orthogonalLoop=1;jettySize=auto;html=1;exitX=0.5;exitY=1;exitDx=0;exitDy=0;strokeColor=#457B9D;fontColor=#1D3557;labelBackgroundColor=#F1FAEE;" parent="1" source="l-QhswC7FGs499EKS-Dz-33" target="l-QhswC7FGs499EKS-Dz-33" edge="1">
          <mxGeometry relative="1" as="geometry" />
        </mxCell>
        <mxCell id="5yb5sMTRyTCn8XweGh5G-2" value="АРМ Продавца" style="swimlane;startSize=20;horizontal=0;rounded=1;sketch=0;strokeColor=#1D3557;fillColor=#FFFFFF;fontColor=#1D3557;" vertex="1" parent="1">
          <mxGeometry x="140" y="990" width="1360" height="320" as="geometry" />
        </mxCell>
        <mxCell id="5yb5sMTRyTCn8XweGh5G-4" value="Прием товара&amp;nbsp;" style="whiteSpace=wrap;html=1;rounded=1;fillColor=#A8DADC;strokeColor=#457B9D;fontColor=#1D3557;" vertex="1" parent="5yb5sMTRyTCn8XweGh5G-2">
          <mxGeometry x="950" y="110" width="120" height="60" as="geometry" />
        </mxCell>
        <mxCell id="5yb5sMTRyTCn8XweGh5G-6" value="SMS" style="shape=document;whiteSpace=wrap;html=1;boundedLbl=1;rounded=0;sketch=0;fillColor=#A8DADC;strokeColor=#457B9D;fontColor=#1D3557;size=0;" vertex="1" parent="5yb5sMTRyTCn8XweGh5G-2">
          <mxGeometry x="800" y="230" width="60" height="35" as="geometry" />
        </mxCell>
        <mxCell id="5yb5sMTRyTCn8XweGh5G-7" value="" style="edgeStyle=orthogonalEdgeStyle;curved=0;rounded=1;sketch=0;orthogonalLoop=1;jettySize=auto;html=1;entryX=0.5;entryY=0;entryDx=0;entryDy=0;strokeColor=#457B9D;fontColor=#1D3557;labelBackgroundColor=#F1FAEE;" edge="1" parent="5yb5sMTRyTCn8XweGh5G-2" source="5yb5sMTRyTCn8XweGh5G-4" target="5yb5sMTRyTCn8XweGh5G-6">
          <mxGeometry relative="1" as="geometry">
            <mxPoint x="950" y="80" as="sourcePoint" />
            <mxPoint x="790" y="280" as="targetPoint" />
          </mxGeometry>
        </mxCell>
        <mxCell id="5yb5sMTRyTCn8XweGh5G-5" value="" style="edgeStyle=orthogonalEdgeStyle;curved=0;rounded=1;sketch=0;orthogonalLoop=1;jettySize=auto;html=1;entryX=0.5;entryY=0;entryDx=0;entryDy=0;strokeColor=#457B9D;fontColor=#1D3557;labelBackgroundColor=#F1FAEE;" edge="1" parent="1" source="l-QhswC7FGs499EKS-Dz-33" target="5yb5sMTRyTCn8XweGh5G-4">
          <mxGeometry relative="1" as="geometry">
            <mxPoint x="1090" y="930" as="sourcePoint" />
            <mxPoint x="930" y="1270" as="targetPoint" />
          </mxGeometry>
        </mxCell>
      </root>
    </mxGraphModel>
  </diagram>
  <diagram id="bTjUAdSyrTr7yLtMcWY4" name="Есть цена">
    <mxGraphModel dx="1209" dy="573" grid="1" gridSize="10" guides="1" tooltips="1" connect="1" arrows="1" fold="1" page="1" pageScale="1" pageWidth="827" pageHeight="1169" math="0" shadow="0">
      <root>
        <mxCell id="q7sptumOLh3D5g368skz-0" />
        <mxCell id="q7sptumOLh3D5g368skz-1" parent="q7sptumOLh3D5g368skz-0" />
        <mxCell id="q7sptumOLh3D5g368skz-2" value="Заказ ИМ" style="ellipse;whiteSpace=wrap;html=1;aspect=fixed;rounded=1;sketch=0;strokeColor=#457B9D;fillColor=#FFFFFF;fontColor=#1D3557;" vertex="1" parent="q7sptumOLh3D5g368skz-1">
          <mxGeometry x="30" y="20" width="80" height="80" as="geometry" />
        </mxCell>
        <mxCell id="q7sptumOLh3D5g368skz-3" value="" style="endArrow=classic;html=1;strokeColor=#457B9D;fillColor=#A8DADC;exitX=1;exitY=0.5;exitDx=0;exitDy=0;fontColor=#1D3557;" edge="1" parent="q7sptumOLh3D5g368skz-1" source="q7sptumOLh3D5g368skz-2" target="q7sptumOLh3D5g368skz-4">
          <mxGeometry width="50" height="50" relative="1" as="geometry">
            <mxPoint x="280" y="110" as="sourcePoint" />
            <mxPoint x="160" y="60" as="targetPoint" />
          </mxGeometry>
        </mxCell>
        <mxCell id="q7sptumOLh3D5g368skz-6" value="" style="edgeStyle=orthogonalEdgeStyle;curved=0;rounded=1;sketch=0;orthogonalLoop=1;jettySize=auto;html=1;strokeColor=#457B9D;fillColor=#A8DADC;fontColor=#1D3557;" edge="1" parent="q7sptumOLh3D5g368skz-1" source="q7sptumOLh3D5g368skz-4" target="q7sptumOLh3D5g368skz-5">
          <mxGeometry relative="1" as="geometry" />
        </mxCell>
        <mxCell id="q7sptumOLh3D5g368skz-4" value="Заказ ИМ" style="rounded=0;whiteSpace=wrap;html=1;fontColor=#1D3557;strokeColor=#1D3557;" vertex="1" parent="q7sptumOLh3D5g368skz-1">
          <mxGeometry x="150" y="30" width="120" height="60" as="geometry" />
        </mxCell>
        <mxCell id="q7sptumOLh3D5g368skz-5" value="Есть цена" style="rhombus;whiteSpace=wrap;html=1;rounded=0;fontColor=#1D3557;strokeColor=#1D3557;" vertex="1" parent="q7sptumOLh3D5g368skz-1">
          <mxGeometry x="300" y="20" width="80" height="80" as="geometry" />
        </mxCell>
        <mxCell id="q7sptumOLh3D5g368skz-7" value="" style="endArrow=classic;html=1;strokeColor=#457B9D;fillColor=#A8DADC;exitX=1;exitY=0.5;exitDx=0;exitDy=0;fontColor=#1D3557;" edge="1" parent="q7sptumOLh3D5g368skz-1" source="q7sptumOLh3D5g368skz-5" target="q7sptumOLh3D5g368skz-10">
          <mxGeometry width="50" height="50" relative="1" as="geometry">
            <mxPoint x="280" y="110" as="sourcePoint" />
            <mxPoint x="430" y="60" as="targetPoint" />
          </mxGeometry>
        </mxCell>
        <mxCell id="q7sptumOLh3D5g368skz-8" value="ДА" style="edgeLabel;html=1;align=center;verticalAlign=middle;resizable=0;points=[];fontColor=#1D3557;" vertex="1" connectable="0" parent="q7sptumOLh3D5g368skz-7">
          <mxGeometry x="-0.5486" relative="1" as="geometry">
            <mxPoint x="8.57" y="-10" as="offset" />
          </mxGeometry>
        </mxCell>
        <mxCell id="uhPMUcUODZVHqSv7SfkF-1" style="edgeStyle=orthogonalEdgeStyle;curved=0;rounded=1;sketch=0;orthogonalLoop=1;jettySize=auto;html=1;entryX=0;entryY=0.5;entryDx=0;entryDy=0;strokeColor=#457B9D;fillColor=#A8DADC;fontColor=#1D3557;" edge="1" parent="q7sptumOLh3D5g368skz-1" source="q7sptumOLh3D5g368skz-10" target="uhPMUcUODZVHqSv7SfkF-0">
          <mxGeometry relative="1" as="geometry" />
        </mxCell>
        <mxCell id="q7sptumOLh3D5g368skz-10" value="Идем по процессу &quot;Под&amp;nbsp; заказ&quot;" style="rounded=0;whiteSpace=wrap;html=1;fontColor=#1D3557;strokeColor=#1D3557;" vertex="1" parent="q7sptumOLh3D5g368skz-1">
          <mxGeometry x="420" y="30" width="120" height="60" as="geometry" />
        </mxCell>
        <mxCell id="q7sptumOLh3D5g368skz-11" value="нет" style="endArrow=classic;html=1;strokeColor=#457B9D;fillColor=#A8DADC;exitX=0.5;exitY=1;exitDx=0;exitDy=0;fontColor=#1D3557;" edge="1" parent="q7sptumOLh3D5g368skz-1" source="q7sptumOLh3D5g368skz-5">
          <mxGeometry width="50" height="50" relative="1" as="geometry">
            <mxPoint x="350" y="150" as="sourcePoint" />
            <mxPoint x="340" y="130" as="targetPoint" />
          </mxGeometry>
        </mxCell>
        <mxCell id="q7sptumOLh3D5g368skz-12" value="Создаем заказ покупателя без цены&lt;br&gt;без проведения" style="rounded=0;whiteSpace=wrap;html=1;sketch=0;strokeColor=#457B9D;fillColor=#FFFFFF;fontColor=#1D3557;" vertex="1" parent="q7sptumOLh3D5g368skz-1">
          <mxGeometry x="280" y="130" width="120" height="60" as="geometry" />
        </mxCell>
        <mxCell id="efFgm-pk9son914C4DJF-0" value="" style="endArrow=classic;html=1;strokeColor=#457B9D;fillColor=#A8DADC;exitX=0.5;exitY=1;exitDx=0;exitDy=0;fontColor=#1D3557;" edge="1" parent="q7sptumOLh3D5g368skz-1" source="q7sptumOLh3D5g368skz-12">
          <mxGeometry width="50" height="50" relative="1" as="geometry">
            <mxPoint x="230" y="270" as="sourcePoint" />
            <mxPoint x="340" y="220" as="targetPoint" />
          </mxGeometry>
        </mxCell>
        <mxCell id="Ni-ZmJe8bs6sg41YD8-3-3" style="edgeStyle=orthogonalEdgeStyle;curved=0;rounded=1;sketch=0;orthogonalLoop=1;jettySize=auto;html=1;entryX=0.5;entryY=0;entryDx=0;entryDy=0;strokeColor=#457B9D;fillColor=#A8DADC;fontColor=#1D3557;" edge="1" parent="q7sptumOLh3D5g368skz-1" source="Ni-ZmJe8bs6sg41YD8-3-0">
          <mxGeometry relative="1" as="geometry">
            <mxPoint x="340" y="410" as="targetPoint" />
          </mxGeometry>
        </mxCell>
        <mxCell id="Ni-ZmJe8bs6sg41YD8-3-0" value="Получаем цену&amp;nbsp;" style="rounded=0;whiteSpace=wrap;html=1;sketch=0;strokeColor=#1D3557;fillColor=#FFFFFF;fontColor=#1D3557;" vertex="1" parent="q7sptumOLh3D5g368skz-1">
          <mxGeometry x="280" y="310" width="120" height="60" as="geometry" />
        </mxCell>
        <mxCell id="stI4JcYftpjTVJYE2Z-w-1" style="edgeStyle=orthogonalEdgeStyle;curved=0;rounded=1;sketch=0;orthogonalLoop=1;jettySize=auto;html=1;entryX=0.5;entryY=0;entryDx=0;entryDy=0;strokeColor=#457B9D;fillColor=#A8DADC;fontColor=#1D3557;" edge="1" parent="q7sptumOLh3D5g368skz-1" source="stI4JcYftpjTVJYE2Z-w-0" target="Ni-ZmJe8bs6sg41YD8-3-0">
          <mxGeometry relative="1" as="geometry" />
        </mxCell>
        <mxCell id="stI4JcYftpjTVJYE2Z-w-0" value="Создаем доставка без проведения" style="rounded=0;whiteSpace=wrap;html=1;sketch=0;strokeColor=#1D3557;fillColor=#FFFFFF;fontColor=#1D3557;" vertex="1" parent="q7sptumOLh3D5g368skz-1">
          <mxGeometry x="280" y="220" width="120" height="60" as="geometry" />
        </mxCell>
        <mxCell id="uhPMUcUODZVHqSv7SfkF-4" style="edgeStyle=orthogonalEdgeStyle;curved=0;rounded=1;sketch=0;orthogonalLoop=1;jettySize=auto;html=1;entryX=0.5;entryY=0;entryDx=0;entryDy=0;strokeColor=#457B9D;fillColor=#A8DADC;fontColor=#1D3557;" edge="1" parent="q7sptumOLh3D5g368skz-1" source="stI4JcYftpjTVJYE2Z-w-3" target="uhPMUcUODZVHqSv7SfkF-3">
          <mxGeometry relative="1" as="geometry" />
        </mxCell>
        <mxCell id="stI4JcYftpjTVJYE2Z-w-3" value="Формируем заказ" style="rounded=0;whiteSpace=wrap;html=1;sketch=0;strokeColor=#1D3557;fillColor=#FFFFFF;fontColor=#1D3557;" vertex="1" parent="q7sptumOLh3D5g368skz-1">
          <mxGeometry x="280" y="410" width="120" height="60" as="geometry" />
        </mxCell>
        <mxCell id="uhPMUcUODZVHqSv7SfkF-0" value="Конец" style="ellipse;whiteSpace=wrap;html=1;aspect=fixed;rounded=1;sketch=0;strokeColor=#457B9D;fillColor=#FFFFFF;fontColor=#1D3557;" vertex="1" parent="q7sptumOLh3D5g368skz-1">
          <mxGeometry x="590" y="20" width="80" height="80" as="geometry" />
        </mxCell>
        <mxCell id="uhPMUcUODZVHqSv7SfkF-3" value="Конец" style="ellipse;whiteSpace=wrap;html=1;aspect=fixed;rounded=1;sketch=0;strokeColor=#457B9D;fillColor=#FFFFFF;fontColor=#1D3557;" vertex="1" parent="q7sptumOLh3D5g368skz-1">
          <mxGeometry x="300" y="500" width="80" height="80" as="geometry" />
        </mxCell>
      </root>
    </mxGraphModel>
  </diagram>
  <diagram id="T5GjeHnSxU3pBS0tHmWQ" name="Есть в наличии">
    <mxGraphModel dx="1422" dy="674" grid="1" gridSize="10" guides="1" tooltips="1" connect="1" arrows="1" fold="1" page="1" pageScale="1" pageWidth="827" pageHeight="1169" math="0" shadow="0">
      <root>
        <mxCell id="iJZs_5wVMrbSO-KHzupF-0" />
        <mxCell id="iJZs_5wVMrbSO-KHzupF-1" parent="iJZs_5wVMrbSO-KHzupF-0" />
        <mxCell id="1P8ZmoRDYlTsv_tZdsaD-2" style="edgeStyle=orthogonalEdgeStyle;curved=0;rounded=1;sketch=0;orthogonalLoop=1;jettySize=auto;html=1;strokeColor=#457B9D;fillColor=#A8DADC;fontColor=#1D3557;" edge="1" parent="iJZs_5wVMrbSO-KHzupF-1" source="1P8ZmoRDYlTsv_tZdsaD-1" target="1P8ZmoRDYlTsv_tZdsaD-3">
          <mxGeometry relative="1" as="geometry">
            <mxPoint x="170" y="80" as="targetPoint" />
          </mxGeometry>
        </mxCell>
        <mxCell id="1P8ZmoRDYlTsv_tZdsaD-1" value="Заказ ИМ" style="ellipse;whiteSpace=wrap;html=1;aspect=fixed;rounded=1;sketch=0;strokeColor=#1D3557;fillColor=#FFFFFF;fontColor=#1D3557;" vertex="1" parent="iJZs_5wVMrbSO-KHzupF-1">
          <mxGeometry x="40" y="40" width="80" height="80" as="geometry" />
        </mxCell>
        <mxCell id="1P8ZmoRDYlTsv_tZdsaD-5" style="edgeStyle=orthogonalEdgeStyle;curved=0;rounded=1;sketch=0;orthogonalLoop=1;jettySize=auto;html=1;strokeColor=#457B9D;fillColor=#A8DADC;fontColor=#1D3557;" edge="1" parent="iJZs_5wVMrbSO-KHzupF-1" source="1P8ZmoRDYlTsv_tZdsaD-3">
          <mxGeometry relative="1" as="geometry">
            <mxPoint x="350" y="80" as="targetPoint" />
          </mxGeometry>
        </mxCell>
        <mxCell id="1P8ZmoRDYlTsv_tZdsaD-3" value="&lt;font color=&quot;#1d3557&quot;&gt;Заказ ИМ&lt;/font&gt;" style="rounded=0;whiteSpace=wrap;html=1;strokeColor=#1D3557;" vertex="1" parent="iJZs_5wVMrbSO-KHzupF-1">
          <mxGeometry x="180" y="50" width="120" height="60" as="geometry" />
        </mxCell>
        <mxCell id="1P8ZmoRDYlTsv_tZdsaD-4" value="Есть в наличии" style="rhombus;whiteSpace=wrap;html=1;rounded=1;sketch=0;strokeColor=#1D3557;fillColor=#FFFFFF;fontColor=#1D3557;" vertex="1" parent="iJZs_5wVMrbSO-KHzupF-1">
          <mxGeometry x="350" y="40" width="80" height="80" as="geometry" />
        </mxCell>
        <mxCell id="1P8ZmoRDYlTsv_tZdsaD-6" value="" style="endArrow=classic;html=1;strokeColor=#457B9D;fillColor=#A8DADC;fontColor=#1D3557;exitX=1;exitY=0.5;exitDx=0;exitDy=0;" edge="1" parent="iJZs_5wVMrbSO-KHzupF-1" source="1P8ZmoRDYlTsv_tZdsaD-4" target="1P8ZmoRDYlTsv_tZdsaD-7">
          <mxGeometry width="50" height="50" relative="1" as="geometry">
            <mxPoint x="430" y="70" as="sourcePoint" />
            <mxPoint x="470" y="80" as="targetPoint" />
          </mxGeometry>
        </mxCell>
        <mxCell id="1P8ZmoRDYlTsv_tZdsaD-8" value="Да" style="edgeLabel;html=1;align=center;verticalAlign=middle;resizable=0;points=[];fontColor=#1D3557;" vertex="1" connectable="0" parent="1P8ZmoRDYlTsv_tZdsaD-6">
          <mxGeometry x="-0.4222" y="3" relative="1" as="geometry">
            <mxPoint x="3" as="offset" />
          </mxGeometry>
        </mxCell>
        <mxCell id="1P8ZmoRDYlTsv_tZdsaD-16" value="" style="edgeStyle=orthogonalEdgeStyle;curved=0;rounded=1;sketch=0;orthogonalLoop=1;jettySize=auto;html=1;strokeColor=#457B9D;fillColor=#A8DADC;fontColor=#1D3557;" edge="1" parent="iJZs_5wVMrbSO-KHzupF-1" source="1P8ZmoRDYlTsv_tZdsaD-7" target="1P8ZmoRDYlTsv_tZdsaD-15">
          <mxGeometry relative="1" as="geometry" />
        </mxCell>
        <mxCell id="1P8ZmoRDYlTsv_tZdsaD-7" value="&lt;font color=&quot;#1d3557&quot;&gt;Идем про процессу &quot;Под заказ&quot;&lt;/font&gt;" style="whiteSpace=wrap;html=1;aspect=fixed;strokeColor=#1D3557;" vertex="1" parent="iJZs_5wVMrbSO-KHzupF-1">
          <mxGeometry x="490" y="40" width="80" height="80" as="geometry" />
        </mxCell>
        <mxCell id="1P8ZmoRDYlTsv_tZdsaD-9" value="нет" style="endArrow=classic;html=1;strokeColor=#457B9D;fillColor=#A8DADC;fontColor=#1D3557;exitX=0.5;exitY=1;exitDx=0;exitDy=0;" edge="1" parent="iJZs_5wVMrbSO-KHzupF-1" source="1P8ZmoRDYlTsv_tZdsaD-4">
          <mxGeometry width="50" height="50" relative="1" as="geometry">
            <mxPoint x="360" y="270" as="sourcePoint" />
            <mxPoint x="390" y="160" as="targetPoint" />
          </mxGeometry>
        </mxCell>
        <mxCell id="1P8ZmoRDYlTsv_tZdsaD-21" value="" style="edgeStyle=orthogonalEdgeStyle;curved=0;rounded=1;sketch=0;orthogonalLoop=1;jettySize=auto;html=1;strokeColor=#457B9D;fillColor=#A8DADC;fontColor=#1D3557;" edge="1" parent="iJZs_5wVMrbSO-KHzupF-1" source="1P8ZmoRDYlTsv_tZdsaD-10" target="1P8ZmoRDYlTsv_tZdsaD-20">
          <mxGeometry relative="1" as="geometry" />
        </mxCell>
        <mxCell id="1P8ZmoRDYlTsv_tZdsaD-10" value="Статус заказа" style="rounded=0;whiteSpace=wrap;html=1;sketch=0;strokeColor=#1D3557;fillColor=#FFFFFF;fontColor=#1D3557;" vertex="1" parent="iJZs_5wVMrbSO-KHzupF-1">
          <mxGeometry x="330" y="160" width="120" height="60" as="geometry" />
        </mxCell>
        <mxCell id="1P8ZmoRDYlTsv_tZdsaD-17" style="edgeStyle=orthogonalEdgeStyle;curved=0;rounded=1;sketch=0;orthogonalLoop=1;jettySize=auto;html=1;strokeColor=#457B9D;fillColor=#A8DADC;fontColor=#1D3557;" edge="1" parent="iJZs_5wVMrbSO-KHzupF-1" source="1P8ZmoRDYlTsv_tZdsaD-15">
          <mxGeometry relative="1" as="geometry">
            <mxPoint x="690" y="160" as="targetPoint" />
          </mxGeometry>
        </mxCell>
        <mxCell id="1P8ZmoRDYlTsv_tZdsaD-15" value="ПО" style="whiteSpace=wrap;html=1;strokeColor=#1D3557;" vertex="1" parent="iJZs_5wVMrbSO-KHzupF-1">
          <mxGeometry x="630" y="50" width="120" height="60" as="geometry" />
        </mxCell>
        <mxCell id="1P8ZmoRDYlTsv_tZdsaD-31" style="edgeStyle=orthogonalEdgeStyle;curved=0;rounded=1;sketch=0;orthogonalLoop=1;jettySize=auto;html=1;entryX=1;entryY=0.5;entryDx=0;entryDy=0;strokeColor=#457B9D;fillColor=#A8DADC;fontColor=#1D3557;" edge="1" parent="iJZs_5wVMrbSO-KHzupF-1" source="1P8ZmoRDYlTsv_tZdsaD-18" target="1P8ZmoRDYlTsv_tZdsaD-29">
          <mxGeometry relative="1" as="geometry" />
        </mxCell>
        <mxCell id="1P8ZmoRDYlTsv_tZdsaD-18" value="&lt;font color=&quot;#1d3557&quot;&gt;ПТУ&lt;/font&gt;" style="whiteSpace=wrap;html=1;strokeColor=#1D3557;" vertex="1" parent="iJZs_5wVMrbSO-KHzupF-1">
          <mxGeometry x="630" y="160" width="120" height="60" as="geometry" />
        </mxCell>
        <mxCell id="1P8ZmoRDYlTsv_tZdsaD-23" value="" style="edgeStyle=orthogonalEdgeStyle;curved=0;rounded=1;sketch=0;orthogonalLoop=1;jettySize=auto;html=1;strokeColor=#457B9D;fillColor=#A8DADC;fontColor=#1D3557;" edge="1" parent="iJZs_5wVMrbSO-KHzupF-1" source="1P8ZmoRDYlTsv_tZdsaD-20" target="1P8ZmoRDYlTsv_tZdsaD-22">
          <mxGeometry relative="1" as="geometry" />
        </mxCell>
        <mxCell id="1P8ZmoRDYlTsv_tZdsaD-20" value="Перемещенеи&amp;nbsp;" style="whiteSpace=wrap;html=1;rounded=0;fontColor=#1D3557;strokeColor=#1D3557;fillColor=#FFFFFF;sketch=0;" vertex="1" parent="iJZs_5wVMrbSO-KHzupF-1">
          <mxGeometry x="330" y="250" width="120" height="60" as="geometry" />
        </mxCell>
        <mxCell id="1P8ZmoRDYlTsv_tZdsaD-27" value="" style="edgeStyle=orthogonalEdgeStyle;curved=0;rounded=1;sketch=0;orthogonalLoop=1;jettySize=auto;html=1;strokeColor=#457B9D;fillColor=#A8DADC;fontColor=#1D3557;" edge="1" parent="iJZs_5wVMrbSO-KHzupF-1" source="1P8ZmoRDYlTsv_tZdsaD-22" target="1P8ZmoRDYlTsv_tZdsaD-26">
          <mxGeometry relative="1" as="geometry" />
        </mxCell>
        <mxCell id="1P8ZmoRDYlTsv_tZdsaD-22" value="РО" style="whiteSpace=wrap;html=1;rounded=0;fontColor=#1D3557;strokeColor=#1D3557;fillColor=#FFFFFF;sketch=0;" vertex="1" parent="iJZs_5wVMrbSO-KHzupF-1">
          <mxGeometry x="330" y="340" width="120" height="60" as="geometry" />
        </mxCell>
        <mxCell id="1P8ZmoRDYlTsv_tZdsaD-30" style="edgeStyle=orthogonalEdgeStyle;curved=0;rounded=1;sketch=0;orthogonalLoop=1;jettySize=auto;html=1;entryX=0.5;entryY=0;entryDx=0;entryDy=0;strokeColor=#457B9D;fillColor=#A8DADC;fontColor=#1D3557;" edge="1" parent="iJZs_5wVMrbSO-KHzupF-1" source="1P8ZmoRDYlTsv_tZdsaD-26" target="1P8ZmoRDYlTsv_tZdsaD-29">
          <mxGeometry relative="1" as="geometry" />
        </mxCell>
        <mxCell id="1P8ZmoRDYlTsv_tZdsaD-26" value="ПО" style="whiteSpace=wrap;html=1;rounded=0;fontColor=#1D3557;strokeColor=#1D3557;fillColor=#FFFFFF;sketch=0;" vertex="1" parent="iJZs_5wVMrbSO-KHzupF-1">
          <mxGeometry x="330" y="430" width="120" height="60" as="geometry" />
        </mxCell>
        <mxCell id="wQGb81k5VaagRKQiBfsZ-2" style="edgeStyle=orthogonalEdgeStyle;curved=0;rounded=1;sketch=0;orthogonalLoop=1;jettySize=auto;html=1;entryX=0.5;entryY=0;entryDx=0;entryDy=0;strokeColor=#457B9D;fillColor=#A8DADC;fontColor=#1D3557;" edge="1" parent="iJZs_5wVMrbSO-KHzupF-1" source="1P8ZmoRDYlTsv_tZdsaD-29" target="wQGb81k5VaagRKQiBfsZ-0">
          <mxGeometry relative="1" as="geometry" />
        </mxCell>
        <mxCell id="1P8ZmoRDYlTsv_tZdsaD-29" value="Чек&amp;nbsp;" style="rounded=0;whiteSpace=wrap;html=1;sketch=0;strokeColor=#1D3557;fillColor=#FFFFFF;fontColor=#1D3557;" vertex="1" parent="iJZs_5wVMrbSO-KHzupF-1">
          <mxGeometry x="330" y="630" width="120" height="60" as="geometry" />
        </mxCell>
        <mxCell id="1P8ZmoRDYlTsv_tZdsaD-34" value="" style="ellipse;whiteSpace=wrap;html=1;aspect=fixed;rounded=1;sketch=0;strokeColor=#1D3557;fillColor=#FFFFFF;fontColor=#1D3557;" vertex="1" parent="iJZs_5wVMrbSO-KHzupF-1">
          <mxGeometry x="350" y="800" width="80" height="80" as="geometry" />
        </mxCell>
        <mxCell id="wQGb81k5VaagRKQiBfsZ-3" style="edgeStyle=orthogonalEdgeStyle;curved=0;rounded=1;sketch=0;orthogonalLoop=1;jettySize=auto;html=1;entryX=0.5;entryY=0;entryDx=0;entryDy=0;strokeColor=#457B9D;fillColor=#A8DADC;fontColor=#1D3557;" edge="1" parent="iJZs_5wVMrbSO-KHzupF-1" source="wQGb81k5VaagRKQiBfsZ-0" target="1P8ZmoRDYlTsv_tZdsaD-34">
          <mxGeometry relative="1" as="geometry" />
        </mxCell>
        <mxCell id="wQGb81k5VaagRKQiBfsZ-0" value="Проведение" style="rounded=0;whiteSpace=wrap;html=1;sketch=0;strokeColor=#1D3557;fillColor=#FFFFFF;fontColor=#1D3557;" vertex="1" parent="iJZs_5wVMrbSO-KHzupF-1">
          <mxGeometry x="330" y="710" width="120" height="60" as="geometry" />
        </mxCell>
        <mxCell id="wQGb81k5VaagRKQiBfsZ-1" value="Проверка на даты&amp;nbsp;" style="rounded=0;whiteSpace=wrap;html=1;sketch=0;strokeColor=#1D3557;fillColor=#FFFFFF;fontColor=#1D3557;" vertex="1" parent="iJZs_5wVMrbSO-KHzupF-1">
          <mxGeometry x="330" y="540" width="120" height="60" as="geometry" />
        </mxCell>
      </root>
    </mxGraphModel>
  </diagram>
</mxfile>
